<svg id="Layer_1" data-name="Layer 1" xmlns="http://www.w3.org/2000/svg" viewBox="0 0 512 512"><title>heart-eyes</title><rect width="512" height="512" rx="24.78" ry="24.78" fill="currentColor"/><path d="M203,127.47A40.38,40.38,0,0,0,169.62,145l-1.55,2-1-1.32a39.83,39.83,0,0,0-33.49-18.16c-23.16,0-40,16.81-40,40,0,34.18,61.88,84.57,66.4,88.19a11.4,11.4,0,0,0,15.76,0C180.26,252,243,200.79,243,167.43c0-23.15-16.81-40-40-40Zm0,0" fill="#fff"/><path d="M378.46,127.47A40.38,40.38,0,0,0,345,145l-1.55,2-1-1.32A39.83,39.83,0,0,0,309,127.47c-23.16,0-40,16.81-40,40,0,34.18,61.89,84.57,66.4,88.19a11.4,11.4,0,0,0,15.76,0c4.52-3.65,67.25-54.83,67.25-88.19,0-23.15-16.8-40-40-40Zm0,0" fill="#fff"/><path d="M356.18,324.12c-56.34,57.34-147,56.89-202.88-.85-8-8.25-20.55,4.33-12.57,12.57a158.81,158.81,0,0,0,228,.85c8-8.18-4.53-20.76-12.57-12.57Zm0,0" fill="#fff"/></svg>