<?xml version="1.0" encoding="iso-8859-1"?>
<!-- Generator: Adobe Illustrator 17.1.0, SVG Export Plug-In . SVG Version: 6.00 Build 0)  -->
<!DOCTYPE svg PUBLIC "-//W3C//DTD SVG 1.1//EN" "http://www.w3.org/Graphics/SVG/1.1/DTD/svg11.dtd">
<svg version="1.1" id="Capa_1" xmlns="http://www.w3.org/2000/svg" xmlns:xlink="http://www.w3.org/1999/xlink" x="0px" y="0px"
	 viewBox="0 0 436.879 436.879" fill="currentColor" style="enable-background:new 0 0 436.879 436.879;" xml:space="preserve">
<g>
	<path d="M411.424,223.786c-6.175-5.519-15.659-4.988-21.18,1.189l-36.775,41.149c-0.69-0.454-1.397-0.91-2.124-1.37
		c-3.797-2.407-8.086-4.86-12.698-7.28l32.224-35.108c5.602-6.103,5.195-15.592-0.908-21.194
		c-6.102-5.603-15.592-5.195-21.193,0.908l-38.979,42.468c-5.339-2.035-11.191-4.087-17.5-6.053l22.494-30.036
		c4.967-6.631,3.616-16.032-3.015-20.998c-6.629-4.965-16.033-3.616-20.997,3.015l-30.004,40.063
		c-5.91-1.145-12.047-2.139-18.385-2.934l16.492-23.454c4.765-6.776,3.134-16.133-3.643-20.898
		c-6.775-4.766-16.134-3.135-20.898,3.642l-27.184,38.66c-5.478,0.074-10.868,0.401-16.155,0.947l10.33-18.877
		c3.977-7.267,1.309-16.382-5.959-20.359c-7.267-3.978-16.382-1.309-20.359,5.958l-21.943,40.102
		c-0.192,0.352-0.356,0.711-0.517,1.07c-21.171,6.47-39.416,15.496-53.297,23.664c-15.222,8.957-26.419,17.526-33.132,23.139
		c-14.365,12.01-16.789,16.805-16.789,23.011c0,6.051,2.668,11.581,16.74,23.448c6.63,5.59,17.776,14.146,33.232,23.157
		c25.101,14.634,64.6,32.079,110.227,32.079c46.41,0,86.287-22.195,111.567-40.814c15.504-11.419,26.604-22.216,33.185-29.263
		c7.805-8.358,11.663-13.88,13.574-17.766l44.76-50.084C418.134,238.789,417.602,229.307,411.424,223.786z M85.097,304.44
		c11.232-9.36,32.786-24.639,60.129-35.633c-5.808,10.506-9.124,22.573-9.124,35.403c0,12.977,3.397,25.169,9.329,35.759
		c-9.784-3.845-18.47-8.094-25.729-12.077C104.147,319.356,92.314,310.55,85.097,304.44z M276.077,335.185
		c4.401-9.418,6.876-19.911,6.876-30.975c0-15.075-4.572-29.1-12.395-40.772c29.612,7.593,52.566,18.947,64.178,26.209
		C324.819,300.722,303.797,320.65,276.077,335.185z"/>
	<path d="M435.631,186.185c-5.531-11.599-12.096-22.851-19.513-33.441c-17.095-24.417-35.767-44.848-55.496-60.724
		c-31.364-25.239-64.294-38.036-97.873-38.036c-28.551,0-90.303,21.277-124.571,33.96c-48.051,17.783-98.167,39.466-119.166,51.557
		C6.93,146.457,0,157.32,0,169.305c0,18.316,15.252,33.218,34,33.218c3.422,0,7.179-0.236,11.455-1.947
		c0.434-0.173,0.956-0.434,5.589-2.787c108.633-55.167,184.586-85.55,213.868-85.55c55.424,0,88.416,22.148,126.674,60.405
		c8.161,8.163,15.665,17.024,22.303,26.341c2.372,3.325,6.228,5.31,10.314,5.31c2.26,0,4.48-0.606,6.412-1.748
		C436.316,199.2,438.474,192.168,435.631,186.185z"/>
</g>
<g>
</g>
<g>
</g>
<g>
</g>
<g>
</g>
<g>
</g>
<g>
</g>
<g>
</g>
<g>
</g>
<g>
</g>
<g>
</g>
<g>
</g>
<g>
</g>
<g>
</g>
<g>
</g>
<g>
</g>
</svg>
